<svg id="visual" viewBox="0 0 1000 450" width="1000" height="450" xmlns="http://www.w3.org/2000/svg" xmlns:xlink="http://www.w3.org/1999/xlink" version="1.1"><rect x="0" y="0" width="1000" height="450" fill="#FFFFFF"></rect><path d="M0 373L16.7 373.5C33.3 374 66.7 375 100 365.8C133.3 356.7 166.7 337.3 200 333.2C233.3 329 266.7 340 300 340.5C333.3 341 366.7 331 400 326.8C433.3 322.7 466.7 324.3 500 333.3C533.3 342.3 566.7 358.7 600 359C633.3 359.3 666.7 343.7 700 338.2C733.3 332.7 766.7 337.3 800 335.8C833.3 334.3 866.7 326.7 900 326.2C933.3 325.7 966.7 332.3 983.3 335.7L1000 339L1000 451L983.3 451C966.7 451 933.3 451 900 451C866.7 451 833.3 451 800 451C766.7 451 733.3 451 700 451C666.7 451 633.3 451 600 451C566.7 451 533.3 451 500 451C466.7 451 433.3 451 400 451C366.7 451 333.3 451 300 451C266.7 451 233.3 451 200 451C166.7 451 133.3 451 100 451C66.7 451 33.3 451 16.7 451L0 451Z" fill="#0066FF" stroke-linecap="round" stroke-linejoin="miter"></path></svg>